<?xml version="1.0" standalone="no"?>
<svg xmlns="http://www.w3.org/2000/svg" viewBox="0 0 167.018 36" width="167.018" height="36"><g fill="#6a8bff" color="#6a8bff" transform="translate(0 6) scale(0.4705883)"><svg width="44.0" height="51.0" x="0.0" y="0.0" viewBox="0 0 44 51"><path fill="currentColor" fill-rule="evenodd" d="M21.986 0L44 12.704v25.393L22.029 50.801.014 38.111 0 12.718 21.986 0zM22 7.428L6.43 16.425V34.42l15.599 8.996 15.555-9.01-.014-17.994L22 7.428zm-.001 5.403l10.907 6.302v12.561l-10.907 6.302-10.893-6.288-.015-12.575L22 12.83z"></path></svg></g><path fill="#5e24c3" fill-rule="nonzero" d="M9.12 10.34L12.94 17.23L9.07 17.23L5.74 10.90L3.34 10.90L3.34 17.23L0 17.23L0 3.82Q0 1.90 0.89 1.02Q1.78 0.14 3.86 0.14L3.86 0.14L6.70 0.14Q9.24 0.14 10.74 1.69Q12.24 3.24 12.24 5.62L12.24 5.62Q12.24 7.34 11.34 8.60Q10.44 9.86 9.12 10.34L9.12 10.34ZM6.48 8.11Q7.54 8.11 8.22 7.38Q8.90 6.65 8.90 5.56Q8.90 4.46 8.24 3.79Q7.58 3.12 6.48 3.12L6.48 3.12L4.82 3.12Q3.34 3.12 3.34 4.63L3.34 4.63L3.34 8.11L6.48 8.11ZM19.03 0.14L19.03 17.23L15.70 17.23L15.70 0.14L19.03 0.14ZM31.42 0.14L34.90 0.14L29.52 16.27Q29.09 17.38 27.98 17.38L27.98 17.38Q26.83 17.38 26.40 16.27L26.40 16.27L21.10 0.14L24.55 0.14L27.98 11.28L31.42 0.14ZM49.49 7.90L49.49 7.90L49.49 9.19Q49.49 13.49 47.87 15.43Q46.25 17.38 42.67 17.38Q39.10 17.38 37.50 15.43Q35.90 13.49 35.90 9.12L35.90 9.12L35.90 7.87Q35.90 3.89 37.52 1.94Q39.14 0 42.66 0Q46.18 0 47.83 1.97Q49.49 3.94 49.49 7.90ZM46.15 9.12L46.15 9.12L46.15 8.23Q46.15 5.93 45.58 4.56L45.58 4.56Q44.90 2.98 42.70 2.98L42.70 2.98Q40.46 2.98 39.79 4.56L39.79 4.56Q39.24 5.86 39.24 8.23L39.24 8.23L39.24 9.12Q39.24 12.22 40.10 13.30L40.10 13.30Q40.44 13.75 41.10 14.08Q41.76 14.40 42.68 14.40Q43.61 14.40 44.26 14.09Q44.90 13.78 45.26 13.32Q45.62 12.86 45.82 12.12L45.82 12.12Q46.15 10.94 46.15 9.12ZM61.54 10.34L65.35 17.23L61.49 17.23L58.15 10.90L55.75 10.90L55.75 17.23L52.42 17.23L52.42 3.82Q52.42 1.90 53.30 1.02Q54.19 0.14 56.28 0.14L56.28 0.14L59.11 0.14Q61.66 0.14 63.16 1.69Q64.66 3.24 64.66 5.62L64.66 5.62Q64.66 7.34 63.76 8.60Q62.86 9.86 61.54 10.34L61.54 10.34ZM58.90 8.11Q59.95 8.11 60.64 7.38Q61.32 6.65 61.32 5.56Q61.32 4.46 60.66 3.79Q60.00 3.12 58.90 3.12L58.90 3.12L57.24 3.12Q55.75 3.12 55.75 4.63L55.75 4.63L55.75 8.11L58.90 8.11ZM81 8.62L81 8.62L81.02 10.46Q80.93 12.22 80.59 13.42Q80.26 14.62 79.27 15.60L79.27 15.60Q77.64 17.23 74.52 17.23L74.52 17.23Q70.85 17.23 69.48 16.26Q68.11 15.29 68.11 12.74L68.11 12.74L68.11 0.14L74.76 0.14Q77.64 0.14 79.27 1.78L79.27 1.78Q80.59 3.10 80.83 4.99L80.83 4.99Q81 6.34 81 8.62ZM76.94 13.20Q77.40 12.65 77.53 11.68Q77.66 10.70 77.66 8.64Q77.66 6.58 77.53 5.65Q77.40 4.73 76.94 4.18L76.94 4.18Q76.08 3.12 74.45 3.12L74.45 3.12L71.45 3.12L71.45 12.58Q71.45 13.54 72.10 13.90Q72.74 14.26 74.41 14.26Q76.08 14.26 76.94 13.20L76.94 13.20ZM95.18 14.26L95.18 17.23L89.14 17.23Q86.26 17.23 85.09 16.24Q83.93 15.24 83.93 12.72L83.93 12.72L83.93 0.14L95.18 0.14L95.18 3.12L87.26 3.12L87.26 7.13L92.81 7.13L92.57 10.10L87.26 10.10L87.26 12.48Q87.26 13.49 87.72 13.87Q88.18 14.26 89.38 14.26L89.38 14.26L95.18 14.26ZM108.98 14.26L108.98 17.23L103.90 17.23Q101.02 17.23 99.73 16.12Q98.45 15 98.45 12.48L98.45 12.48L98.45 0.14L101.78 0.14L101.78 12.48Q101.78 13.49 102.24 13.87Q102.70 14.26 103.90 14.26L103.90 14.26L108.98 14.26ZM122.76 0.14L122.76 3.12L118.18 3.12L118.18 17.23L114.84 17.23L114.84 3.12L110.28 3.12L110.28 0.14L122.76 0.14ZM132.84 1.58L138.31 17.23L134.83 17.23L133.87 14.28L128.14 14.28L127.20 17.23L123.72 17.23L129.19 1.58Q129.55 0.77 130.00 0.46Q130.44 0.14 131.09 0.14Q131.74 0.14 132.13 0.43Q132.53 0.72 132.84 1.58L132.84 1.58ZM128.98 11.47L133.10 11.47L131.09 4.70L128.98 11.47Z" transform="translate(28.706, 9.384)"></path></svg>